<?xml version="1.0" encoding="UTF-8"?>
<svg version="1.1" xmlns="http://www.w3.org/2000/svg" width="512" height="512">
<path d="M0 0 C0.98043777 -0.0049649 1.96087555 -0.00992981 2.97102356 -0.01504517 C6.2302011 -0.02970859 9.48932998 -0.03647568 12.74853516 -0.04199219 C15.00436404 -0.04774014 17.2601929 -0.05349791 19.51602173 -0.05926514 C24.2523827 -0.069787 28.98872663 -0.07562192 33.72509766 -0.07910156 C39.80407021 -0.08458919 45.88281908 -0.10861812 51.96172142 -0.13707352 C56.62332829 -0.1556665 61.28488093 -0.16090371 65.94652176 -0.16243744 C68.18808846 -0.16547199 70.42965403 -0.17352731 72.67118454 -0.18662262 C75.80309981 -0.20361353 78.93446403 -0.20181985 82.06640625 -0.1953125 C82.99847397 -0.20452728 83.93054169 -0.21374207 84.89085388 -0.22323608 C85.74336227 -0.21766693 86.59587067 -0.21209778 87.47421265 -0.20635986 C88.58532945 -0.2085597 88.58532945 -0.2085597 89.71889305 -0.21080399 C92.26812468 0.27700319 93.11229326 1.10272468 94.66259766 3.16113281 C95.94804568 7.34360585 95.79808865 11.50709608 95.78285217 15.84234619 C95.78413381 17.17054371 95.78413381 17.17054371 95.78544134 18.52557349 C95.78709093 21.49818924 95.78158325 24.4707488 95.77612305 27.44335938 C95.77584104 29.57200113 95.77599918 31.70064297 95.77656555 33.82928467 C95.77685299 39.61399577 95.77096491 45.39868623 95.76399159 51.18339252 C95.75774913 57.22656971 95.75715355 63.26974734 95.75596619 69.31292725 C95.75285551 80.75923924 95.74464566 92.20554171 95.7346167 103.65184951 C95.72344739 116.68192284 95.71794304 129.71199661 95.71292126 142.74207354 C95.70246284 169.54843191 95.68486848 196.35478183 95.66259766 223.16113281 C96.3080957 223.14018555 96.95359375 223.11923828 97.61865234 223.09765625 C100.54980834 223.01439076 103.48071542 222.96244075 106.41259766 222.91113281 C107.42837891 222.87761719 108.44416016 222.84410156 109.49072266 222.80957031 C116.75593751 222.71397538 116.75593751 222.71397538 120.33439732 224.47884274 C122.54489029 228.94291581 122.20733115 233.41733392 122.1638031 238.32777405 C122.1693375 239.48063682 122.17487189 240.63349958 122.180574 241.82129759 C122.19184414 245.0219274 122.18513479 248.22194181 122.17083728 251.42254126 C122.15974407 254.87384646 122.17166453 258.32508188 122.18067932 261.77638245 C122.1946247 268.53740366 122.18704634 275.29823831 122.17200374 282.05925066 C122.1551601 289.92866833 122.15835177 297.79803931 122.16209782 305.66746943 C122.16797867 319.70551543 122.15379549 333.74347177 122.12915039 347.78149414 C122.10522436 361.41141113 122.09814761 375.04120836 122.10864258 388.67114258 C122.12004447 403.50553219 122.12199124 418.33986638 122.10754448 433.17425531 C122.1060186 434.75514662 122.10449825 436.33603793 122.10298347 437.91692924 C122.10222566 438.69480625 122.10146785 439.47268326 122.10068707 440.2741323 C122.09593895 445.76308104 122.09779938 451.25200508 122.10204887 456.74095345 C122.10696872 463.42686962 122.10102164 470.11267242 122.08115458 476.79856259 C122.07126359 480.21159065 122.06619676 483.62444585 122.07404709 487.03748322 C122.07996518 490.73233452 122.06756118 494.42667048 122.05027771 498.12147522 C122.05929278 499.75014584 122.05929278 499.75014584 122.06848997 501.4117189 C122.06005003 502.39754281 122.05161009 503.38336671 122.04291439 504.39906406 C122.0413707 505.67907648 122.0413707 505.67907648 122.03979582 506.98494774 C121.66259766 509.16113281 121.66259766 509.16113281 120.65527493 510.9351669 C117.44804635 512.90836796 114.05297115 512.57060968 110.39944458 512.53865623 C109.11412484 512.54519672 109.11412484 512.54519672 107.80283904 512.55186933 C104.905837 512.56289552 102.00930397 512.55236943 99.11230469 512.54208374 C97.02470212 512.54553739 94.93710137 512.55029998 92.84950447 512.55626547 C87.09282883 512.56884529 81.33630146 512.56257348 75.57962513 512.55330682 C69.37914309 512.54654513 63.17868734 512.5569832 56.97821045 512.56524658 C45.52681996 512.57784337 34.07549593 512.57671261 22.62410575 512.56851218 C12.04629408 512.56097424 1.46849984 512.55899132 -9.10931396 512.56258011 C-9.81016384 512.56280926 -10.51101372 512.56303842 -11.23310147 512.56327452 C-14.07786915 512.56420849 -16.92263683 512.56516368 -19.76740449 512.56615381 C-46.46954163 512.57533689 -73.17164847 512.56700081 -99.87378094 512.55086312 C-123.61232201 512.53662563 -147.35081481 512.53789948 -171.08935547 512.55224609 C-197.74173537 512.56829976 -224.39408849 512.5746857 -251.04647255 512.5654093 C-253.88614527 512.56444711 -256.72581799 512.56350859 -259.56549072 512.56258011 C-260.2647231 512.56234288 -260.96395547 512.56210564 -261.6843767 512.56186122 C-272.25718213 512.55844457 -282.82996824 512.5624475 -293.402771 512.57001877 C-305.42098862 512.57858204 -317.43913673 512.57619323 -329.45735216 512.56017654 C-335.59433512 512.55226852 -341.73121988 512.54924515 -347.86820221 512.55912399 C-353.47879079 512.56801919 -359.08918949 512.56322405 -364.69976068 512.54719134 C-366.7367211 512.54382146 -368.77369735 512.54558658 -370.81064773 512.5528187 C-373.56541428 512.5618542 -376.31951818 512.55267397 -379.07424927 512.53865623 C-379.87730948 512.54567973 -380.68036969 512.55270323 -381.50776505 512.55993956 C-386.77714844 512.50582093 -386.77714844 512.50582093 -389.33007962 510.9351669 C-390.64175882 508.62511914 -390.7145146 507.05617818 -390.71771908 504.39906406 C-390.72615902 503.41324016 -390.73459896 502.42741626 -390.74329466 501.4117189 C-390.73728461 500.32593849 -390.73127457 499.24015807 -390.7250824 498.12147522 C-390.73046794 496.97017244 -390.73585347 495.81886967 -390.74140221 494.63267893 C-390.75326036 491.4318261 -390.75159769 488.23130515 -390.7442354 485.03044903 C-390.73951754 481.58047042 -390.75200128 478.13054841 -390.76225281 474.68058777 C-390.7794735 467.91980196 -390.78027406 461.15910896 -390.7750399 454.39830691 C-390.77100299 448.90450475 -390.77243606 443.41073008 -390.77778816 437.91692924 C-390.77853658 437.13583874 -390.77928501 436.35474823 -390.78005611 435.54998831 C-390.78158754 433.96334183 -390.78312589 432.37669536 -390.78467108 430.79004889 C-390.79840798 415.90129695 -390.79295011 401.01259751 -390.78148586 386.12384676 C-390.77155251 372.49524975 -390.78449377 358.86678848 -390.80842005 345.23821241 C-390.83278786 331.2530505 -390.84242463 317.26795187 -390.83576733 303.28276914 C-390.8322699 295.42767511 -390.83454157 287.57268552 -390.85201836 279.7176075 C-390.86671143 273.03058368 -390.86741394 266.34373782 -390.84994745 259.65671761 C-390.84141091 256.2435156 -390.83935184 252.83063188 -390.854599 249.41744614 C-390.8677028 245.72058438 -390.85635464 242.02459729 -390.83860779 238.32777405 C-390.84821279 237.24422435 -390.8578178 236.16067466 -390.86771387 235.04429013 C-390.79670343 227.89257905 -390.79670343 227.89257905 -388.65861607 224.4876318 C-385.78605988 222.84605832 -383.99782609 222.70027273 -380.69677734 222.77050781 C-379.62685547 222.78339844 -378.55693359 222.79628906 -377.45458984 222.80957031 C-375.78783203 222.85984375 -375.78783203 222.85984375 -374.08740234 222.91113281 C-372.96076172 222.92917969 -371.83412109 222.94722656 -370.67333984 222.96582031 C-367.89383339 223.01293059 -365.11604895 223.07869921 -362.33740234 223.16113281 C-362.34201131 222.50606404 -362.34662027 221.85099527 -362.3513689 221.17607594 C-362.46180218 205.23503911 -362.5445363 189.29413536 -362.5964632 173.35281086 C-362.62224234 165.6436775 -362.65738689 157.93479952 -362.71459961 150.22583008 C-362.76444399 143.50648283 -362.79669549 136.78732053 -362.80784482 130.06779355 C-362.814362 126.50991654 -362.82967187 122.95256861 -362.86605263 119.39486122 C-362.90634161 115.42272672 -362.90735108 111.45110928 -362.9050293 107.47875977 C-362.92300568 106.29984161 -362.94098206 105.12092346 -362.95950317 103.90628052 C-362.90320234 95.02794856 -362.90320234 95.02794856 -359.98942566 91.89128113 C-357.33740234 90.16113281 -357.33740234 90.16113281 -354.33740234 90.16113281 C-354.33740234 83.23113281 -354.33740234 76.30113281 -354.33740234 69.16113281 C-355.98740234 68.83113281 -357.63740234 68.50113281 -359.33740234 68.16113281 C-361.49793309 66.05565625 -362.24639683 64.71986542 -362.73181152 61.73963928 C-362.74023071 60.83982834 -362.7486499 59.9400174 -362.75732422 59.01293945 C-362.77323608 57.98830093 -362.78914795 56.96366241 -362.80554199 55.90797424 C-362.80584412 54.25631508 -362.80584412 54.25631508 -362.80615234 52.57128906 C-362.81757263 50.8662748 -362.81757263 50.8662748 -362.82922363 49.1268158 C-362.84002611 46.72364498 -362.84287716 44.32042721 -362.83837891 41.91723633 C-362.83740682 38.24057724 -362.87902562 34.56600607 -362.92333984 30.88964844 C-362.92854696 28.55436633 -362.93123504 26.21907697 -362.93115234 23.88378906 C-362.94754761 22.78470718 -362.96394287 21.68562531 -362.98083496 20.55323792 C-362.94023531 16.0689756 -362.76460355 12.97749932 -360.66748047 8.9699707 C-355.17654524 5.98739452 -349.60796637 6.44975836 -343.46240234 6.49707031 C-342.09146698 6.49369917 -340.72053454 6.48884406 -339.34960938 6.48257446 C-336.4813176 6.47521687 -333.61380625 6.48587071 -330.74560547 6.50927734 C-327.07656741 6.53776682 -323.40935798 6.52135653 -319.74038696 6.49141502 C-316.91091232 6.47331048 -314.08186828 6.479114 -311.25238037 6.49205399 C-309.24441332 6.4969916 -307.23642925 6.48185818 -305.22851562 6.46640015 C-300.25763567 6.53036728 -296.46680977 6.5949465 -291.98974609 8.83935547 C-289.24812767 14.35094829 -289.82143347 19.92278139 -290.02490234 25.97363281 C-290.04746094 27.23884766 -290.07001953 28.5040625 -290.09326172 29.80761719 C-290.15211156 32.926659 -290.23428864 36.04329183 -290.33740234 39.16113281 C-288.65610481 39.15114006 -288.65610481 39.15114006 -286.94084167 39.14094543 C-276.39033112 39.08019475 -265.83985594 39.03518925 -255.28921032 39.0056963 C-249.86468925 38.99002407 -244.4403091 38.96875734 -239.01586914 38.93481445 C-233.78337019 38.90227661 -228.55100698 38.88429153 -223.31841469 38.87650108 C-221.31966323 38.87094755 -219.32091941 38.86010317 -217.32222557 38.84394264 C-214.52788468 38.8222425 -211.73410852 38.81916278 -208.93969727 38.82055664 C-207.69352631 38.8043779 -207.69352631 38.8043779 -206.42218018 38.78787231 C-200.88687146 38.81785345 -200.88687146 38.81785345 -198.62385559 40.23166656 C-196.68775448 43.13549673 -196.93427397 46.02142401 -196.97663879 49.39335632 C-196.97407552 50.13504258 -196.97151224 50.87672883 -196.9688713 51.64089042 C-196.96391881 54.13312727 -196.98045001 56.62476206 -196.99682617 59.11694336 C-196.99767213 60.90061427 -196.99719791 62.68428624 -196.99549866 64.46795654 C-196.99463606 69.31688885 -197.01230463 74.16559964 -197.03322053 79.01448035 C-197.05194324 84.0793698 -197.05373429 89.14426403 -197.05729675 94.20918274 C-197.06663019 103.80331748 -197.09126153 113.39734997 -197.12134522 122.99143964 C-197.15484885 133.91268968 -197.17136508 144.83394455 -197.18643153 155.75523317 C-197.21780996 178.22392313 -197.27059567 200.69252225 -197.33740234 223.16113281 C-196.66684814 223.13494873 -195.99629395 223.10876465 -195.30541992 223.08178711 C-192.25382107 222.97756043 -189.20259692 222.91272658 -186.14990234 222.84863281 C-184.56725586 222.78579102 -184.56725586 222.78579102 -182.95263672 222.72167969 C-175.1315212 222.59831824 -175.1315212 222.59831824 -171.10414124 225.45263672 C-169.08821588 228.5431477 -168.95507701 230.30436191 -169.67697144 233.90234375 C-170.97712384 238.34909208 -172.76457893 242.54763681 -174.62255859 246.78613281 C-175.06702835 247.8224585 -175.51149811 248.85878418 -175.96943665 249.92651367 C-177.43693759 253.34215144 -178.91857702 256.75147078 -180.39990234 260.16113281 C-181.42587053 262.54478892 -182.45075587 264.92891137 -183.47460938 267.31347656 C-186.46862305 274.27972195 -189.47703358 281.2396737 -192.48827362 288.19848633 C-196.43380749 297.31805557 -200.373132 306.44029025 -204.30123234 315.56738281 C-205.63491419 318.66504486 -206.97176342 321.76126581 -208.31570435 324.85449219 C-209.81565485 328.30842373 -211.30770669 331.76567217 -212.79833984 335.22363281 C-213.24518631 336.24626221 -213.69203278 337.2688916 -214.15242004 338.32250977 C-217.82118714 346.8711497 -219.02269527 351.38891289 -215.52819824 360.20770264 C-215.1042981 361.23905334 -214.68039795 362.27040405 -214.24365234 363.33300781 C-213.36963799 365.54642455 -212.49595031 367.75997031 -211.62255859 369.97363281 C-210.23360138 373.44332741 -208.83782612 376.91008673 -207.43457031 380.37402344 C-206.08183176 383.72839455 -204.75545826 387.09233003 -203.43115234 390.45800781 C-203.0072522 391.4812616 -202.58335205 392.50451538 -202.14660645 393.55877686 C-199.54624334 400.20656077 -198.93001216 405.15957214 -200.33740234 412.16113281 C-200.46168106 412.84686371 -200.58595978 413.5325946 -200.71400452 414.23910522 C-201.07123223 416.09584562 -201.48398977 417.94165097 -201.89990234 419.78613281 C-202.16931641 420.99527344 -202.43873047 422.20441406 -202.71630859 423.45019531 C-203.02375 424.79210937 -203.02375 424.79210937 -203.33740234 426.16113281 C-201.03810528 422.7704086 -198.749336 419.37270543 -196.46240234 415.97363281 C-195.4859375 414.53407227 -195.4859375 414.53407227 -194.48974609 413.06542969 C-193.86455078 412.13408203 -193.23935547 411.20273437 -192.59521484 410.24316406 C-192.01916504 409.38956299 -191.44311523 408.53596191 -190.84960938 407.65649414 C-190.35058105 406.8330249 -189.85155273 406.00955566 -189.33740234 405.16113281 C-188.8765625 404.443125 -188.41572266 403.72511719 -187.94091797 402.98535156 C-186.93612735 398.28332169 -188.85040721 394.33154971 -190.42333984 389.89160156 C-190.75911041 388.89663162 -191.09488098 387.90166168 -191.44082642 386.87654114 C-192.51585249 383.69504169 -193.61207156 380.52146162 -194.71240234 377.34863281 C-195.80408402 374.18608013 -196.89063838 371.02216926 -197.96255493 367.8528595 C-198.62950153 365.88206423 -199.30782497 363.9150713 -199.99911499 361.9526825 C-202.42506831 354.80204948 -203.81298693 349.07816675 -200.66015625 341.88256836 C-199.89459736 340.34599502 -199.11153279 338.81805661 -198.31396484 337.29785156 C-197.6836586 336.05066093 -197.6836586 336.05066093 -197.0406189 334.77827454 C-195.69610699 332.12715855 -194.32967297 329.48807012 -192.96240234 326.84863281 C-192.08205308 325.11954904 -191.20313489 323.38973587 -190.32568359 321.65917969 C-186.93760765 314.99814801 -183.51262055 308.35699059 -180.00219727 301.75952148 C-174.73348017 291.85656449 -169.66687483 281.86312149 -164.68505859 271.81347656 C-164.00545357 270.44391331 -163.32582703 269.07436073 -162.6461792 267.70481873 C-159.84527174 262.05829366 -157.04611898 256.4109311 -154.2590332 250.75756836 C-152.52965063 247.25039249 -150.79254869 243.74713631 -149.05029106 240.2463398 C-148.39390474 238.92369165 -147.74044138 237.59958861 -147.0900135 236.27400017 C-146.18902364 234.43839891 -145.27726272 232.60809629 -144.36499023 230.77807617 C-143.59415855 229.21856483 -143.59415855 229.21856483 -142.80775452 227.62754822 C-141.33740234 225.16113281 -141.33740234 225.16113281 -138.33740234 223.16113281 C-135.79510637 222.98984141 -133.36550753 222.92870347 -130.82568359 222.96582031 C-129.73334663 222.97006516 -129.73334663 222.97006516 -128.61894226 222.97439575 C-126.29576097 222.98558025 -123.97296688 223.01068115 -121.64990234 223.03613281 C-120.07373604 223.04616487 -118.49756369 223.05529033 -116.92138672 223.06347656 C-113.05990968 223.08551385 -109.19872163 223.1200314 -105.33740234 223.16113281 C-105.34016772 222.42875806 -105.3429331 221.6963833 -105.34578228 220.94181538 C-105.41202985 203.12308083 -105.46167695 185.30437085 -105.49283886 167.48553944 C-105.508309 158.86848847 -105.52940132 150.2515197 -105.5637207 141.63452148 C-105.59361857 134.12410972 -105.61297628 126.61375749 -105.61966783 119.10328788 C-105.62357944 115.12638365 -105.63277525 111.14964972 -105.65459251 107.17280006 C-105.67496385 103.42916252 -105.68123488 99.68576534 -105.67672539 95.94207764 C-105.67794345 93.91408726 -105.69408221 91.88612303 -105.71066284 89.85820007 C-105.70653885 88.64810272 -105.70241486 87.43800537 -105.69816589 86.1912384 C-105.70093127 85.14131619 -105.70369665 84.09139399 -105.70654583 83.00965595 C-105.27913616 79.71151748 -104.29304709 77.82847785 -102.33740234 75.16113281 C-99.13052163 73.55769246 -95.64557387 74.03190536 -92.12402344 74.04760742 C-90.8507444 74.04738838 -90.8507444 74.04738838 -89.55174255 74.04716492 C-86.73808257 74.04786315 -83.9244883 74.05565141 -81.11083984 74.06347656 C-79.16313717 74.06534106 -77.21543402 74.06676481 -75.26773071 74.06776428 C-70.1352001 74.07158698 -65.00269768 74.08141517 -59.87017822 74.09246826 C-54.63529848 74.1026877 -49.40041419 74.10726305 -44.16552734 74.11230469 C-33.88947328 74.12303764 -23.61344015 74.14011111 -13.33740234 74.16113281 C-13.3473951 72.89992363 -13.3473951 72.89992363 -13.35758972 71.61323547 C-13.41774342 63.68282218 -13.46339839 55.7524857 -13.49283886 47.82189655 C-13.50848344 43.74485337 -13.52969942 39.66799899 -13.5637207 35.59106445 C-13.59635758 31.65532263 -13.61426445 27.71976221 -13.62203407 23.78389549 C-13.62756984 22.28360324 -13.63837996 20.78332072 -13.65459251 19.28310585 C-13.67642506 17.1788361 -13.67936695 15.07531237 -13.67797852 12.97094727 C-13.68797127 11.17558281 -13.68797127 11.17558281 -13.69816589 9.34394836 C-12.63846823 -0.00517296 -8.04100696 0.00960213 0 0 Z " fill="#010100" transform="translate(390.33740234375,-0.1611328125)"/>
<path d="M0 0 C3.58271776 -0.1743959 7.16434602 -0.28087658 10.75 -0.375 C11.76578125 -0.42527344 12.7815625 -0.47554688 13.828125 -0.52734375 C16.67124757 -0.58345801 19.21321903 -0.57401754 22 0 C24.578125 2.9609375 24.578125 2.9609375 26 6 C40.02537383 13.01268692 57.32302573 7.65162279 73 8 C73 53.87 73 99.74 73 147 C-86.06 147 -245.12 147 -409 147 C-409 101.13 -409 55.26 -409 8 C-362.14 8 -315.28 8 -267 8 C-265.35 11.96 -263.7 15.92 -262 20 C-261.12045654 22.09529053 -261.12045654 22.09529053 -260.22314453 24.23291016 C-258.798079 27.63147901 -257.40096039 31.04092711 -256.01367188 34.45507812 C-255.41841631 35.9085483 -254.81513371 37.35875548 -254.20410156 38.80566406 C-247.6993988 54.23784574 -247.6993988 54.23784574 -250 63 C-250.16322754 63.72735352 -250.32645508 64.45470703 -250.49462891 65.20410156 C-251.02316469 67.42623047 -251.62531496 69.61558738 -252.25 71.8125 C-252.70274606 73.46553798 -253.15318034 75.11921049 -253.6015625 76.7734375 C-253.83262695 77.62518555 -254.06369141 78.47693359 -254.30175781 79.35449219 C-255.72665216 84.75314784 -256.98394978 90.19256029 -258.25366211 95.62939453 C-259.35658314 100.34231699 -260.53723639 105.01752057 -261.8125 109.6875 C-263.058758 114.65116757 -264.03294567 119.91628701 -263 125 C-260.12614418 127.15567663 -260.12614418 127.15567663 -256.8125 127.8125 C-252.18639449 126.82660866 -251.81426337 125.87866488 -249.19921875 122.1015625 C-248.49885498 121.09810791 -247.79849121 120.09465332 -247.0769043 119.06079102 C-246.39152588 118.05072998 -245.70614746 117.04066895 -245 116 C-244.41968018 115.15042725 -243.83936035 114.30085449 -243.24145508 113.42553711 C-240.80611797 109.82228641 -238.41446143 106.19073197 -236.01953125 102.56054688 C-234.95798828 100.95469727 -234.95798828 100.95469727 -233.875 99.31640625 C-233.5049585 98.75660065 -233.13491699 98.19679504 -232.75366211 97.62002563 C-229.97330186 93.42920278 -227.13997141 89.27686139 -224.28833008 85.13426208 C-222.06603857 81.90179915 -219.85841238 78.65944682 -217.65185547 75.41622925 C-216.55584398 73.81305327 -215.45334876 72.21428959 -214.34423828 70.62014771 C-212.77470588 68.36223167 -211.22916414 66.08950154 -209.6875 63.8125 C-209.21328613 63.14246445 -208.73907227 62.47242889 -208.25048828 61.78208923 C-205.22332109 57.24563356 -204.10407216 53.49408411 -205 48 C-205.75572964 44.83282422 -206.76414368 41.79280107 -207.84375 38.72265625 C-208.13229858 37.87070175 -208.42084717 37.01874725 -208.71813965 36.14097595 C-209.63410066 33.44412583 -210.56651161 30.75332728 -211.5 28.0625 C-212.42974223 25.34551193 -213.35613892 22.62740263 -214.28186035 19.90904236 C-214.85741661 18.22304138 -215.43603195 16.53808108 -216.01794434 14.85426331 C-218 9.10531254 -218 9.10531254 -218 8 C-216.91109592 7.99668985 -215.82219185 7.99337971 -214.70029068 7.98996925 C-188.22786251 7.90904283 -161.75549268 7.81674816 -135.2831459 7.71247292 C-122.48141937 7.66231089 -109.67969936 7.6158684 -96.87792969 7.578125 C-85.72236486 7.54522573 -74.5668501 7.50540597 -63.41134048 7.45720994 C-57.50238106 7.43192443 -51.59345496 7.4101492 -45.68445587 7.39665604 C-40.12609056 7.38385434 -34.56783934 7.36182035 -29.00953674 7.33261681 C-26.96650676 7.32352622 -24.9234584 7.31784736 -22.88040924 7.31578636 C-20.09659494 7.31247429 -17.31310619 7.29702545 -14.52935791 7.2784729 C-13.71612824 7.28040763 -12.90289856 7.28234237 -12.06502557 7.28433573 C-6.70028859 7.27882409 -6.70028859 7.27882409 -2 5 C-0.71745356 2.46229997 -0.71745356 2.46229997 0 0 Z " fill="#F5A86B" transform="translate(424,350)"/>
<path d="M0 0 C1.18415785 0.00056958 1.18415785 0.00056958 2.39223808 0.00115067 C3.29991198 -0.00084038 4.20758588 -0.00283143 5.14276505 -0.00488281 C6.15149876 -0.00196997 7.16023248 0.00094287 8.19953388 0.00394398 C9.26211192 0.00308955 10.32468996 0.00223513 11.41946733 0.00135481 C15.00945719 -0.00030315 18.59940117 0.00522653 22.18938679 0.01067311 C24.75107806 0.01095494 27.31276941 0.01079733 29.87446064 0.0102306 C35.40476108 0.01000227 40.93504653 0.01285381 46.46534389 0.01846844 C54.46131194 0.02658108 62.45727427 0.02919842 70.45324599 0.03045643 C83.42486646 0.03264732 96.39648066 0.03930841 109.36809772 0.04875904 C121.97193855 0.0579322 134.57577767 0.0650135 147.17962116 0.06926686 C147.95597729 0.06952958 148.73233341 0.0697923 149.53221548 0.07006299 C153.42680336 0.07136799 157.32139126 0.0726317 161.21597916 0.07387489 C193.54688296 0.08424866 225.87777511 0.10268759 258.20867389 0.1241985 C258.20867389 19.5941985 258.20867389 39.0641985 258.20867389 59.1241985 C234.83367389 59.4991985 234.83367389 59.4991985 227.4533028 59.60222584 C225.53059963 59.63741937 223.60790955 59.67333923 221.68523639 59.710136 C220.17836262 59.72717579 220.17836262 59.72717579 218.64104694 59.74455982 C217.21006672 59.77465138 217.21006672 59.77465138 215.7501778 59.80535084 C214.91966907 59.81867451 214.08916034 59.83199818 213.23348469 59.8457256 C210.98253775 59.94755391 210.98253775 59.94755391 209.20867389 62.1241985 C208.81103127 64.11241163 208.47092041 66.11364189 208.20867389 68.1241985 C207.87867389 67.4641985 207.54867389 66.8041985 207.20867389 66.1241985 C206.55793903 66.15038258 205.90720417 66.17656666 205.23675007 66.2035442 C202.29013666 66.30743711 199.34390788 66.37249769 196.39617389 66.4366985 C195.37201374 66.47859303 194.34785358 66.52048756 193.29265827 66.56365162 C190.51273126 66.6092242 187.94725218 66.60952351 185.20867389 66.1241985 C183.07195514 63.66716725 183.07195514 63.66716725 182.20867389 61.1241985 C180.16391782 59.07944243 175.85093203 59.96932491 173.04007953 59.96598011 C172.17351201 59.96104214 171.30694448 59.95610416 170.41411734 59.95101655 C167.48748394 59.93556203 164.5608726 59.92725953 161.634211 59.91887623 C159.54541811 59.90930395 157.45662718 59.89929426 155.36783832 59.88887745 C149.67800886 59.86175189 143.98817104 59.84078389 138.29831237 59.82087547 C132.35920194 59.79906293 126.42011751 59.77165117 120.48102802 59.74481922 C109.22588111 59.69482813 97.97071982 59.64991319 86.7155447 59.60679686 C73.90559087 59.5574792 61.09566311 59.50254085 48.28573447 59.44711727 C21.92673858 59.33319876 -4.43228229 59.22638133 -30.79132611 59.1241985 C-29.49171694 55.13975703 -28.07087809 51.43449516 -26.19342571 47.68547779 C-25.67626492 46.64807957 -25.15910412 45.61068135 -24.62627178 44.54184681 C-24.07101315 43.43851506 -23.51575451 42.3351833 -22.94366986 41.19841725 C-22.37177426 40.05508427 -21.79987866 38.91175129 -21.21065289 37.73377186 C-20.00464647 35.32477382 -18.79716433 32.91659111 -17.5869804 30.50969654 C-16.03375192 27.42031252 -14.48587023 24.32828774 -12.93977028 21.23533112 C-11.46413919 18.28440539 -9.98511394 15.33518363 -8.50616986 12.38591725 C-7.94888699 11.27246433 -7.39160412 10.15901142 -6.81743389 9.01181751 C-6.30342526 7.99018009 -5.78941662 6.96854267 -5.25983196 5.91594654 C-4.80619778 5.01248997 -4.35256359 4.1090334 -3.88518292 3.17819935 C-2.27669835 0.15785094 -2.27669835 0.15785094 0 0 Z " fill="#B95C4B" transform="translate(238.79132610559464,283.8758015036583)"/>
<path d="M0 0 C25.41 0 50.82 0 77 0 C77 68.64 77 137.28 77 208 C51.59 208 26.18 208 0 208 C0 139.36 0 70.72 0 0 Z " fill="#A99DA8" transform="translate(393,15)"/>
<path d="M0 0 C25.41 0 50.82 0 77 0 C77 55.77 77 111.54 77 169 C51.59 169 26.18 169 0 169 C0 113.23 0 57.46 0 0 Z " fill="#D1CBD0" transform="translate(101,54)"/>
<path d="M0 0 C25.41 0 50.82 0 77 0 C77 44.22 77 88.44 77 134 C51.59 134 26.18 134 0 134 C0 89.78 0 45.56 0 0 Z " fill="#E2DEE2" transform="translate(301,89)"/>
<path d="M0 0 C54.78 0 109.56 0 166 0 C165.22116233 3.89418836 164.42651645 6.65894253 162.8828125 10.2175293 C162.44565918 11.23175461 162.00850586 12.24597992 161.55810547 13.29093933 C161.08518066 14.37442154 160.61225586 15.45790375 160.125 16.57421875 C159.64047363 17.69439896 159.15594727 18.81457916 158.65673828 19.96870422 C157.10905189 23.54363236 155.55454631 27.11555034 154 30.6875 C152.9526905 33.10462949 151.90581039 35.52194508 150.859375 37.93945312 C148.9478598 42.35096319 147.03529551 46.76200624 145.1171875 51.1706543 C144.53880127 52.50038521 144.53880127 52.50038521 143.94873047 53.85697937 C143.33092796 55.25249007 142.68251447 56.63497105 142 58 C95.14 58 48.28 58 0 58 C0 38.86 0 19.72 0 0 Z " fill="#B95C4B" transform="translate(15,285)"/>
<path d="M0 0 C13.86 0 27.72 0 42 0 C42 66.66 42 133.32 42 202 C28.14 202 14.28 202 0 202 C-0.01981934 198.0723877 -0.03963867 194.14477539 -0.06005859 190.09814453 C-0.12683765 177.15001624 -0.20437768 164.20197139 -0.28752708 151.25393867 C-0.33769688 143.40026939 -0.38413918 135.54661078 -0.421875 127.69287109 C-0.45476631 120.84934383 -0.49458147 114.00589831 -0.54279006 107.16246116 C-0.56808369 103.53728758 -0.58985635 99.91216842 -0.60334396 96.28693008 C-0.61851244 92.24471494 -0.64913548 88.20276132 -0.68115234 84.16064453 C-0.68331253 82.95223907 -0.68547272 81.74383362 -0.68769836 80.49880981 C-0.69886185 79.40222046 -0.71002533 78.3056311 -0.7215271 77.17581177 C-0.72705786 76.21899065 -0.73258862 75.26216953 -0.73828697 74.27635384 C-0.78380475 71.80171856 -0.78380475 71.80171856 -3 70 C-5.06874034 69.3574765 -5.06874034 69.3574765 -7 69 C-7.1743959 65.41728224 -7.28087658 61.83565398 -7.375 58.25 C-7.45041016 56.72632812 -7.45041016 56.72632812 -7.52734375 55.171875 C-7.54667969 54.1921875 -7.56601562 53.2125 -7.5859375 52.203125 C-7.6173584 51.30239258 -7.6487793 50.40166016 -7.68115234 49.47363281 C-7 47 -7 47 -4.01367188 45.28710938 C-0.89608642 43.39608141 -0.89608642 43.39608141 -0.42715454 40.99359131 C-0.2089599 38.38211055 -0.16940699 35.82368352 -0.1953125 33.203125 C-0.18160614 32.25435486 -0.16789978 31.30558472 -0.15377808 30.32806396 C-0.11642578 27.30156259 -0.12019648 24.27669948 -0.125 21.25 C-0.10687691 19.19658887 -0.08607544 17.14319951 -0.0625 15.08984375 C-0.00556167 10.05893529 -0.00424311 5.03233207 0 0 Z " fill="#A398A2" transform="translate(43,22)"/>
<path d="M0 0 C78.21 0 156.42 0 237 0 C237 10.56 237 21.12 237 32 C153.84 32 70.68 32 -15 32 C-11.27471105 20.82413314 -5.26835416 10.53670832 0 0 Z " fill="#BAF39A" transform="translate(260,238)"/>
<path d="M0 0 C10.56 0 21.12 0 32 0 C32 68.64 32 137.28 32 208 C21.44 208 10.88 208 0 208 C0 139.36 0 70.72 0 0 Z " fill="#9A8D98" transform="translate(438,15)"/>
<path d="M0 0 C61.38 0 122.76 0 186 0 C185.20116916 3.99415422 184.31314571 6.94816642 182.75 10.6328125 C182.3065625 11.68597656 181.863125 12.73914063 181.40625 13.82421875 C180.9421875 14.91347656 180.478125 16.00273437 180 17.125 C179.0824819 19.29391085 178.16577717 21.46316601 177.25 23.6328125 C176.84265625 24.59074707 176.4353125 25.54868164 176.015625 26.53564453 C175.2758761 28.33060256 174.61393019 30.15820944 174 32 C116.58 32 59.16 32 0 32 C0 21.44 0 10.88 0 0 Z " fill="#B5ED96" transform="translate(15,238)"/>
<path d="M0 0 C14.85 0 29.7 0 45 0 C45 5.94 45 11.88 45 18 C43.24171875 18.02578125 41.4834375 18.0515625 39.671875 18.078125 C37.36455834 18.13440102 35.05726763 18.19174846 32.75 18.25 C31.59113281 18.26417969 30.43226563 18.27835938 29.23828125 18.29296875 C27.56572266 18.34130859 27.56572266 18.34130859 25.859375 18.390625 C24.83295898 18.41157227 23.80654297 18.43251953 22.74902344 18.45410156 C19.32129662 19.13477627 18.11316638 20.26071025 16 23 C15.41654524 26.04253508 15.41654524 26.04253508 16 29 C17.54506466 31.03667615 18.72146156 31.86073078 21 33 C22.81171098 33.15306901 24.6283794 33.24946661 26.4453125 33.31640625 C27.52167969 33.35830078 28.59804687 33.40019531 29.70703125 33.44335938 C30.83496094 33.48267578 31.96289062 33.52199219 33.125 33.5625 C34.26066406 33.60568359 35.39632812 33.64886719 36.56640625 33.69335938 C39.37745261 33.79965945 42.1887099 33.90035397 45 34 C45 38.29 45 42.58 45 47 C43.24171875 47.02578125 41.4834375 47.0515625 39.671875 47.078125 C37.36455834 47.13440102 35.05726763 47.19174846 32.75 47.25 C31.59113281 47.26417969 30.43226563 47.27835938 29.23828125 47.29296875 C27.56572266 47.34130859 27.56572266 47.34130859 25.859375 47.390625 C24.83295898 47.41157227 23.80654297 47.43251953 22.74902344 47.45410156 C19.32129662 48.13477627 18.11316638 49.26071025 16 52 C15.41654524 55.04253508 15.41654524 55.04253508 16 58 C17.54506466 60.03667615 18.72146156 60.86073078 21 62 C22.81171098 62.15306901 24.6283794 62.24946661 26.4453125 62.31640625 C27.52167969 62.35830078 28.59804687 62.40019531 29.70703125 62.44335938 C30.83496094 62.48267578 31.96289062 62.52199219 33.125 62.5625 C34.26066406 62.60568359 35.39632812 62.64886719 36.56640625 62.69335938 C39.37745261 62.79965945 42.1887099 62.90035397 45 63 C45 67.29 45 71.58 45 76 C43.24171875 76.02578125 41.4834375 76.0515625 39.671875 76.078125 C37.36455834 76.13440102 35.05726763 76.19174846 32.75 76.25 C31.59113281 76.26417969 30.43226563 76.27835937 29.23828125 76.29296875 C27.56572266 76.34130859 27.56572266 76.34130859 25.859375 76.390625 C24.31975098 76.4220459 24.31975098 76.4220459 22.74902344 76.45410156 C19.322379 77.13456133 18.11751549 78.26648 16 81 C15.33333333 84 15.33333333 84 16 87 C18.11751549 89.73352 19.322379 90.86543867 22.74902344 91.54589844 C23.77543945 91.5668457 24.80185547 91.58779297 25.859375 91.609375 C26.97441406 91.64160156 28.08945313 91.67382812 29.23828125 91.70703125 C30.39714844 91.72121094 31.55601562 91.73539062 32.75 91.75 C33.92433594 91.77964844 35.09867188 91.80929688 36.30859375 91.83984375 C39.2053595 91.91049657 42.1026842 91.95751736 45 92 C45 96.29 45 100.58 45 105 C43.31390625 105.04898438 41.6278125 105.09796875 39.890625 105.1484375 C37.67706684 105.22347337 35.46352598 105.29902085 33.25 105.375 C32.13882813 105.4059375 31.02765625 105.436875 29.8828125 105.46875 C28.81289062 105.50742188 27.74296875 105.54609375 26.640625 105.5859375 C25.16384277 105.63306885 25.16384277 105.63306885 23.65722656 105.68115234 C20.9582225 106.00501299 19.27635632 106.5368138 17 108 C15.57958179 110.84083641 15.68547728 112.85477278 16 116 C18.10575071 118.74755069 19.32046483 119.86505856 22.74902344 120.54589844 C23.77543945 120.5668457 24.80185547 120.58779297 25.859375 120.609375 C26.97441406 120.64160156 28.08945313 120.67382812 29.23828125 120.70703125 C30.39714844 120.72121094 31.55601562 120.73539062 32.75 120.75 C33.92433594 120.77964844 35.09867188 120.80929688 36.30859375 120.83984375 C39.2053595 120.91049657 42.1026842 120.95751736 45 121 C45 125.29 45 129.58 45 134 C43.24171875 134.03738281 41.4834375 134.07476562 39.671875 134.11328125 C37.36456184 134.1789365 35.05727113 134.24538399 32.75 134.3125 C31.59113281 134.33505859 30.43226563 134.35761719 29.23828125 134.38085938 C28.12324219 134.41630859 27.00820312 134.45175781 25.859375 134.48828125 C24.31975098 134.52755737 24.31975098 134.52755737 22.74902344 134.56762695 C19.62810036 135.05849327 18.20835047 135.75757005 16 138 C15.3914764 142.70823941 15.3914764 142.70823941 17.3125 146.875 C20.5462295 149.03081967 23.55047163 149.17046023 27.32421875 149.31640625 C28.35224609 149.35830078 29.38027344 149.40019531 30.43945312 149.44335938 C31.51130859 149.48267578 32.58316406 149.52199219 33.6875 149.5625 C34.77095703 149.60568359 35.85441406 149.64886719 36.97070312 149.69335938 C39.64698385 149.79946742 42.32347511 149.90024055 45 150 C45 156.27 45 162.54 45 169 C30.15 169 15.3 169 0 169 C0 113.23 0 57.46 0 0 Z " fill="#E4E0E4" transform="translate(101,54)"/>
<path d="M0 0 C10.56 0 21.12 0 32 0 C32 45.87 32 91.74 32 139 C21.44 139 10.88 139 0 139 C0 93.13 0 47.26 0 0 Z " fill="#EA9B58" transform="translate(465,358)"/>
<path d="M0 0 C3.78354768 1.19111686 4.49597247 1.68453605 6.375 5.0625 C6.75252342 8.16444302 6.75252342 8.16444302 6.75595093 11.88780212 C6.7606309 12.57372879 6.76531087 13.25965546 6.77013266 13.96636778 C6.782096 16.26415232 6.77262056 18.56134192 6.76318359 20.85913086 C6.76724875 22.50676319 6.77259032 24.15439279 6.77911377 25.80201721 C6.79280092 30.27724783 6.78748269 34.75227116 6.77797651 39.22750545 C6.77038589 43.90969705 6.77742398 48.59187081 6.78213501 53.27406311 C6.78759484 61.13838896 6.78039554 69.00263033 6.76611328 76.86694336 C6.749792 85.95900019 6.75507055 95.05085516 6.7715925 104.14290708 C6.78520765 111.94768976 6.78712671 119.75241168 6.77927649 127.5572024 C6.77459941 132.21923383 6.77397599 136.88117039 6.78388596 141.54319572 C6.79255355 145.92712409 6.78653751 150.31079234 6.76920319 154.69469261 C6.76523699 156.30353615 6.76637468 157.91240159 6.77299118 159.52123642 C6.78119192 161.71785769 6.77090377 163.91364601 6.75595093 166.11021423 C6.75481985 167.33929976 6.75368877 168.5683853 6.75252342 169.83471584 C6.33737822 173.38416215 5.58155111 175.2691495 3.375 178.0625 C0 179.1875 0 179.1875 -3.625 179.0625 C-6.94859755 176.50030576 -8.44550452 174.98695843 -9.2542057 170.82189178 C-9.25609083 169.58673073 -9.25797596 168.35156967 -9.25991821 167.07897949 C-9.26771817 166.38811485 -9.27551812 165.6972502 -9.28355443 164.98545027 C-9.30345635 162.67660237 -9.28771907 160.3694062 -9.27197266 158.06054688 C-9.27874966 156.40290873 -9.28765326 154.74527811 -9.29852295 153.08766174 C-9.32131329 148.58964382 -9.31248119 144.09219944 -9.29662752 139.59417152 C-9.28396711 134.88661785 -9.29570903 130.17911322 -9.30355835 125.47155762 C-9.31265451 117.56607243 -9.30066791 109.66082082 -9.27685547 101.75537109 C-9.24964422 92.61602482 -9.25845841 83.47723625 -9.2859875 74.3379035 C-9.30867855 66.49060718 -9.31187868 58.64347874 -9.29879415 50.79616022 C-9.2909996 46.10949213 -9.2899581 41.42308617 -9.30647659 36.73643494 C-9.32092209 32.33016293 -9.31089858 27.92460981 -9.28200531 23.51841545 C-9.27539486 21.90151602 -9.27729155 20.28455608 -9.28831863 18.66768074 C-9.30198888 16.45964458 -9.28484558 14.25391003 -9.25991821 12.04602051 C-9.25803308 10.81085945 -9.25614796 9.57569839 -9.2542057 8.30310822 C-8.20142245 2.88094174 -5.54764481 0.09564905 0 0 Z " fill="#000000" transform="translate(447.625,28.9375)"/>
<path d="M0 0 C3.78354768 1.19111686 4.49597247 1.68453605 6.375 5.0625 C6.75252342 8.16444302 6.75252342 8.16444302 6.75595093 11.88780212 C6.7606309 12.57372879 6.76531087 13.25965546 6.77013266 13.96636778 C6.782096 16.26415232 6.77262056 18.56134192 6.76318359 20.85913086 C6.76724875 22.50676319 6.77259032 24.15439279 6.77911377 25.80201721 C6.79280092 30.27724783 6.78748269 34.75227116 6.77797651 39.22750545 C6.77038589 43.90969705 6.77742398 48.59187081 6.78213501 53.27406311 C6.78759484 61.13838896 6.78039554 69.00263033 6.76611328 76.86694336 C6.749792 85.95900019 6.75507055 95.05085516 6.7715925 104.14290708 C6.78520765 111.94768976 6.78712671 119.75241168 6.77927649 127.5572024 C6.77459941 132.21923383 6.77397599 136.88117039 6.78388596 141.54319572 C6.79255355 145.92712409 6.78653751 150.31079234 6.76920319 154.69469261 C6.76523699 156.30353615 6.76637468 157.91240159 6.77299118 159.52123642 C6.78119192 161.71785769 6.77090377 163.91364601 6.75595093 166.11021423 C6.75481985 167.33929976 6.75368877 168.5683853 6.75252342 169.83471584 C6.33737822 173.38416215 5.58155111 175.2691495 3.375 178.0625 C0 179.1875 0 179.1875 -3.625 179.0625 C-6.94859755 176.50030576 -8.44550452 174.98695843 -9.2542057 170.82189178 C-9.25609083 169.58673073 -9.25797596 168.35156967 -9.25991821 167.07897949 C-9.26771817 166.38811485 -9.27551812 165.6972502 -9.28355443 164.98545027 C-9.30345635 162.67660237 -9.28771907 160.3694062 -9.27197266 158.06054688 C-9.27874966 156.40290873 -9.28765326 154.74527811 -9.29852295 153.08766174 C-9.32131329 148.58964382 -9.31248119 144.09219944 -9.29662752 139.59417152 C-9.28396711 134.88661785 -9.29570903 130.17911322 -9.30355835 125.47155762 C-9.31265451 117.56607243 -9.30066791 109.66082082 -9.27685547 101.75537109 C-9.24964422 92.61602482 -9.25845841 83.47723625 -9.2859875 74.3379035 C-9.30867855 66.49060718 -9.31187868 58.64347874 -9.29879415 50.79616022 C-9.2909996 46.10949213 -9.2899581 41.42308617 -9.30647659 36.73643494 C-9.32092209 32.33016293 -9.31089858 27.92460981 -9.28200531 23.51841545 C-9.27539486 21.90151602 -9.27729155 20.28455608 -9.28831863 18.66768074 C-9.30198888 16.45964458 -9.28484558 14.25391003 -9.25991821 12.04602051 C-9.25803308 10.81085945 -9.25614796 9.57569839 -9.2542057 8.30310822 C-8.20142245 2.88094174 -5.54764481 0.09564905 0 0 Z " fill="#010001" transform="translate(417.625,28.9375)"/>
<path d="M0 0 C85.8 0 171.6 0 260 0 C260 19.47 260 38.94 260 59 C245.15 59 230.3 59 215 59 C215 58.67 215 58.34 215 58 C219.29 58 223.58 58 228 58 C228 39.19 228 20.38 228 1 C152.76 1 77.52 1 0 1 C0 0.67 0 0.34 0 0 Z " fill="#99493A" transform="translate(237,284)"/>
<path d="M0 0 C1.90625 0.37890625 1.90625 0.37890625 4.40625 1.94140625 C6.5285614 5.39016227 6.32289061 7.34069731 5.90625 11.37890625 C4.5193256 14.69510566 2.74508079 17.73263733 0.90625 20.81640625 C0.42929688 21.64333984 -0.04765625 22.47027344 -0.5390625 23.32226562 C-1.71078027 25.34933737 -2.89566975 27.36734225 -4.09375 29.37890625 C-2.82917969 30.08466797 -2.82917969 30.08466797 -1.5390625 30.8046875 C-0.44335938 31.42730469 0.65234375 32.04992187 1.78125 32.69140625 C2.87179688 33.30628906 3.96234375 33.92117187 5.0859375 34.5546875 C7.90625 36.37890625 7.90625 36.37890625 9.90625 39.37890625 C10.40246871 44.69615313 9.53924869 47.91808993 6.9765625 52.5546875 C6.35048096 53.70461182 5.72439941 54.85453613 5.0793457 56.03930664 C4.39717468 57.25696887 3.71446604 58.47433006 3.03125 59.69140625 C2.34152423 60.94263495 1.65297287 62.19451173 0.96557617 63.44702148 C-0.40379725 65.93711592 -1.78129857 68.42243192 -3.16552734 70.90429688 C-4.86177196 73.96088758 -6.52765232 77.03057752 -8.17578125 80.11328125 C-9.04388781 81.72286289 -9.91234569 83.33225513 -10.78125 84.94140625 C-11.35818604 86.02772339 -11.35818604 86.02772339 -11.94677734 87.13598633 C-13.8823707 90.66187008 -15.50697159 93.42378856 -19.09375 95.37890625 C-23.00953329 95.86837916 -25.17522594 95.96770372 -28.53125 93.81640625 C-30.69693383 90.43793947 -30.43143342 88.36102199 -30.09375 84.37890625 C-28.98942629 81.72421683 -27.87689352 79.39135025 -26.48046875 76.90625 C-26.11025101 76.22011124 -25.74003326 75.53397247 -25.3585968 74.82704163 C-24.17967353 72.64914162 -22.98111663 70.48282542 -21.78125 68.31640625 C-20.98627114 66.85816197 -20.19263799 65.3991832 -19.40039062 63.93945312 C-18.28015899 61.87631667 -17.1581591 59.81441574 -16.02555847 57.75804138 C-13.95922619 54.00589864 -11.98348825 50.22301128 -10.09375 46.37890625 C-10.85300781 45.9921875 -11.61226562 45.60546875 -12.39453125 45.20703125 C-13.38839844 44.68625 -14.38226563 44.16546875 -15.40625 43.62890625 C-16.39238281 43.1184375 -17.37851563 42.60796875 -18.39453125 42.08203125 C-21.17862672 40.32535162 -22.66100514 39.33749853 -24.09375 36.37890625 C-23.70464098 31.44342381 -22.57330439 27.73875429 -20.29296875 23.3671875 C-19.72771484 22.27986328 -19.16246094 21.19253906 -18.58007812 20.07226562 C-17.98646484 18.95658203 -17.39285156 17.84089844 -16.78125 16.69140625 C-16.19923828 15.56412109 -15.61722656 14.43683594 -15.01757812 13.27539062 C-7.80706697 -0.45152813 -7.80706697 -0.45152813 0 0 Z " fill="#000000" transform="translate(235.09375,-0.37890625)"/>
<path d="M0 0 C4.34139511 4.79957002 7.21561559 10.44422952 10.28320312 16.10107422 C11.24782946 17.87101739 12.23287606 19.62854416 13.21875 21.38671875 C14.13914062 23.07861328 14.13914062 23.07861328 15.078125 24.8046875 C15.63918945 25.82546387 16.20025391 26.84624023 16.77832031 27.89794922 C18.20679962 31.52509911 18.3993639 34.13353595 18 38 C14.90260352 41.32970122 11.83415087 43.15576274 7.78125 45.14453125 C7.07033203 45.49491455 6.35941406 45.84529785 5.62695312 46.20629883 C5.09005859 46.46822021 4.55316406 46.7301416 4 47 C4.45439453 47.81621826 4.45439453 47.81621826 4.91796875 48.64892578 C6.29178305 51.1339445 7.64595195 53.62916008 9 56.125 C9.47695313 56.9809375 9.95390625 57.836875 10.4453125 58.71875 C14.87757501 66.95009467 14.87757501 66.95009467 14 72 C11.54405875 75.32274404 10.0743356 76.77618008 6 77.625 C1.98524654 76.78859303 0.71420744 75.03475636 -2 72 C-4.33488013 68.39691907 -6.33848627 64.631591 -8.35864258 60.84399414 C-9.31268621 59.06215222 -10.28905901 57.29388432 -11.26757812 55.52539062 C-11.87666016 54.39423828 -12.48574219 53.26308594 -13.11328125 52.09765625 C-13.66798096 51.07164307 -14.22268066 50.04562988 -14.79418945 48.98852539 C-16.11815722 45.70715478 -16.3802235 43.5045215 -16 40 C-13.29113295 36.41730487 -10.1889715 34.46198719 -6.30859375 32.34765625 C-5.50091553 31.90558838 -4.6932373 31.46352051 -3.86108398 31.00805664 C-3.24692627 30.67539795 -2.63276855 30.34273926 -2 30 C-2.30292969 29.46632812 -2.60585937 28.93265625 -2.91796875 28.3828125 C-4.29637357 25.93137255 -5.64816566 23.46618427 -7 21 C-7.71542969 19.74123047 -7.71542969 19.74123047 -8.4453125 18.45703125 C-11.41494158 12.98442908 -12.70370557 9.23580681 -12 3 C-8.98112554 -1.45643372 -4.83978007 -1.38279431 0 0 Z " fill="#000000" transform="translate(255,125)"/>
<path d="M0 0 C78.21 0 156.42 0 237 0 C237 10.56 237 21.12 237 32 C153.84 32 70.68 32 -15 32 C-15 31.67 -15 31.34 -15 31 C57.6 31 130.2 31 205 31 C205 21.1 205 11.2 205 1 C137.35 1 69.7 1 0 1 C0 0.67 0 0.34 0 0 Z " fill="#89C685" transform="translate(260,238)"/>
<path d="M0 0 C1.20348083 -0.00717545 1.20348083 -0.00717545 2.43127441 -0.01449585 C4.12233448 -0.01788817 5.81346071 -0.00873233 7.50439453 0.01220703 C10.08645444 0.03898683 12.66416834 0.01244154 15.24609375 -0.01953125 C16.89323872 -0.01622703 18.54038099 -0.00982052 20.1875 0 C20.95533813 -0.01012115 21.72317627 -0.02024231 22.51428223 -0.03067017 C26.52417326 0.05659108 28.39498216 0.50784604 31.58398438 3.01416016 C33.59375 5.6640625 33.59375 5.6640625 34.15625 8.7265625 C33.44174 12.4578925 32.64998445 13.41522488 29.59375 15.6640625 C26.66727334 16.25758176 23.79050469 16.22472236 20.8125 16.1953125 C19.5367511 16.20105286 19.5367511 16.20105286 18.23522949 16.20690918 C16.43984796 16.20962708 14.64442676 16.20227432 12.84912109 16.18554688 C10.10294207 16.16413417 7.35937903 16.18535121 4.61328125 16.2109375 C2.86718173 16.2082942 1.12108384 16.20316917 -0.625 16.1953125 C-1.44488403 16.20340942 -2.26476807 16.21150635 -3.10949707 16.21984863 C-6.89614905 16.15764858 -8.80264185 16.10820929 -11.91992188 13.81445312 C-13.40625 11.6640625 -13.40625 11.6640625 -13.96875 8.7265625 C-12.56030105 1.05834045 -6.87355003 -0.09060277 0 0 Z " fill="#060606" transform="translate(129.40625,71.3359375)"/>
<path d="M0 0 C1.2757489 -0.00574036 1.2757489 -0.00574036 2.57727051 -0.01159668 C4.37265204 -0.01431458 6.16807324 -0.00696182 7.96337891 0.00976562 C10.70955793 0.03117833 13.45312097 0.00996129 16.19921875 -0.015625 C17.94531827 -0.0129817 19.69141616 -0.00785667 21.4375 0 C22.25738403 -0.00809692 23.07726807 -0.01619385 23.92199707 -0.02453613 C27.70715622 0.0376394 29.61662195 0.089814 32.73632812 2.37695312 C34.76682193 5.32772344 34.80358843 7.02221944 34.21875 10.53125 C32.3516509 12.83400556 30.86227259 14.20948871 28.21875 15.53125 C23.13576872 15.81521543 18.05183409 15.84497881 12.96166992 15.88134766 C11.26328826 15.89789824 9.56497599 15.92517685 7.86694336 15.96337891 C5.41483537 16.01824658 2.96435853 16.04003513 0.51171875 16.0546875 C-0.24365677 16.07735687 -0.99903229 16.10002625 -1.77729797 16.12338257 C-5.78052348 16.10740118 -7.57759933 15.69108386 -10.7644043 13.18994141 C-12.78125 10.53125 -12.78125 10.53125 -13.34375 7.46875 C-11.89278953 -0.10848804 -6.50485161 -0.06423992 0 0 Z " fill="#060606" transform="translate(128.78125,159.46875)"/>
<path d="M0 0 C0.80232056 -0.00619858 1.60464111 -0.01239716 2.43127441 -0.01878357 C4.12230215 -0.02586618 5.81339984 -0.02273491 7.50439453 -0.01000977 C10.08626949 0.00386605 12.6645241 -0.03024323 15.24609375 -0.06835938 C16.89323005 -0.06931059 18.54037087 -0.06745164 20.1875 -0.0625 C21.3392572 -0.08238731 21.3392572 -0.08238731 22.51428223 -0.10267639 C26.51111882 -0.03351149 28.40687948 0.42336937 31.61523438 2.87915039 C33.59375 5.56640625 33.59375 5.56640625 33.65625 9.19140625 C32.45204975 13.01651294 32.0540555 13.72161719 28.59375 15.56640625 C25.66663598 15.87131396 22.95785108 16.01076608 20.03125 16 C19.20294678 16.00524185 18.37464355 16.0104837 17.52124023 16.0158844 C15.77296061 16.02229737 14.02463779 16.02097697 12.27636719 16.01245117 C9.60273448 16.00393487 6.93123453 16.03272038 4.2578125 16.06445312 C2.55729231 16.06606513 0.85676833 16.06548761 -0.84375 16.0625 C-1.64176025 16.07373398 -2.43977051 16.08496796 -3.26196289 16.09654236 C-6.82927089 16.05177801 -8.97948683 15.87576787 -11.90625 13.75415039 C-14.12722733 10.51486363 -14.02143987 8.39425431 -13.40625 4.56640625 C-9.42254142 0.23862371 -5.59448855 -0.03613774 0 0 Z " fill="#030303" transform="translate(129.40625,187.43359375)"/>
<path d="M0 0 C1.2757489 -0.00574036 1.2757489 -0.00574036 2.57727051 -0.01159668 C4.37265204 -0.01431458 6.16807324 -0.00696182 7.96337891 0.00976562 C10.70955793 0.03117833 13.45312097 0.00996129 16.19921875 -0.015625 C17.94531827 -0.0129817 19.69141616 -0.00785667 21.4375 0 C22.25738403 -0.00809692 23.07726807 -0.01619385 23.92199707 -0.02453613 C27.70715622 0.0376394 29.61662195 0.089814 32.73632812 2.37695312 C34.76682193 5.32772344 34.80358843 7.02221944 34.21875 10.53125 C32.56997866 12.95321742 31.26807621 14.3237495 28.33102417 14.90454102 C25.93964167 15.06204985 23.5801012 15.08546657 21.18359375 15.0625 C19.87099327 15.06824036 19.87099327 15.06824036 18.53187561 15.07409668 C16.6852198 15.07681464 14.83852541 15.06946154 12.99194336 15.05273438 C10.16237877 15.03129643 7.33534574 15.05255217 4.50585938 15.078125 C2.71093189 15.07548221 0.91600598 15.07035823 -0.87890625 15.0625 C-2.1492849 15.07464539 -2.1492849 15.07464539 -3.44532776 15.08703613 C-9.27279989 14.99375545 -9.27279989 14.99375545 -11.81030273 12.68554688 C-13.14765605 9.71828371 -13.25069539 7.75030409 -12.78125 4.53125 C-9.37764193 -0.42803626 -5.51303503 -0.05444505 0 0 Z " fill="#020202" transform="translate(128.78125,130.46875)"/>
<path d="M0 0 C0.87411026 -0.0038269 1.74822052 -0.00765381 2.64881897 -0.01159668 C4.49725496 -0.01431826 6.3457293 -0.00693983 8.1940918 0.00976562 C11.02154663 0.03114708 13.84645313 0.00998662 16.67382812 -0.015625 C18.47005769 -0.01298126 20.26628567 -0.00785533 22.0625 0 C22.90739487 -0.00809692 23.75228973 -0.01619385 24.62278748 -0.02453613 C30.46257155 0.06856904 30.46257155 0.06856904 33.63110352 2.37695312 C35.64129083 5.32982359 35.68104591 7.03091202 35.09765625 10.53125 C33.45551225 12.91765953 32.16090961 14.3157809 29.25561523 14.90454102 C26.93337266 15.06194959 24.64391739 15.08548579 22.31640625 15.0625 C21.04065735 15.06824036 21.04065735 15.06824036 19.73913574 15.07409668 C17.94375421 15.07681458 16.14833301 15.06946182 14.35302734 15.05273438 C11.60684832 15.03132167 8.86328528 15.05253871 6.1171875 15.078125 C4.37108798 15.0754817 2.62499009 15.07035667 0.87890625 15.0625 C0.05902222 15.07059692 -0.76086182 15.07869385 -1.60559082 15.08703613 C-5.39196326 15.02484067 -7.3014378 14.97110757 -10.42382812 12.68554688 C-12.43456863 9.75576249 -12.4105692 8.01622448 -11.90234375 4.53125 C-9.52179449 -0.75061237 -5.10073495 -0.0487653 0 0 Z " fill="#010101" transform="translate(127.90234375,101.46875)"/>
<path d="M0 0 C2.18359375 1.44140625 2.18359375 1.44140625 4 4 C4.61741316 7.15541411 4.60382938 10.23082662 4.5625 13.4375 C4.58634766 14.28376953 4.61019531 15.13003906 4.63476562 16.00195312 C4.62431765 20.44930575 4.422362 22.43399205 1.69140625 26.09375 C-1 28 -1 28 -4.625 28.0625 C-8 27 -8 27 -9.68359375 25.52734375 C-11.72115257 21.61547267 -11.47354142 17.84462927 -11.4375 13.5 C-11.45748047 12.64535156 -11.47746094 11.79070312 -11.49804688 10.91015625 C-11.49320182 4.69879134 -11.49320182 4.69879134 -9.19140625 1.4375 C-5.96517032 -0.67881875 -3.76908836 -0.53844119 0 0 Z " fill="#050505" transform="translate(327,180)"/>
<path d="M0 0 C3.375 1.0625 3.375 1.0625 5.05859375 2.53515625 C7.09615257 6.44702733 6.84854142 10.21787073 6.8125 14.5625 C6.83248047 15.41714844 6.85246094 16.27179688 6.87304688 17.15234375 C6.86820098 23.36477506 6.86820098 23.36477506 4.56640625 26.62109375 C1.3124837 28.76137436 -0.82481631 28.67324381 -4.625 28.0625 C-7.76646248 25.22450617 -8.87819318 22.9397818 -9.19140625 18.8125 C-9.21119638 17.22928981 -9.20934587 15.64568315 -9.1875 14.0625 C-9.21134766 13.2684375 -9.23519531 12.474375 -9.25976562 11.65625 C-9.24898925 7.34570198 -8.99065729 5.54694951 -6.31640625 2.00390625 C-3.625 0.0625 -3.625 0.0625 0 0 Z " fill="#050505" transform="translate(324.625,104.9375)"/>
<path d="M0 0 C2.66275498 1.9990184 4.68303976 3.57966775 5.43286133 6.93969727 C5.56456532 9.16741277 5.53508824 11.33327839 5.4375 13.5625 C5.43169922 14.31724609 5.42589844 15.07199219 5.41992188 15.84960938 C5.26505006 22.88078964 5.26505006 22.88078964 3 26 C-0.49124017 28.32749345 -1.89222251 28.50299316 -6 28 C-8.16015625 26.6015625 -8.16015625 26.6015625 -10 24 C-10.5976835 20.65800712 -10.55805563 17.3865787 -10.5 14 C-10.51546875 13.09765625 -10.5309375 12.1953125 -10.546875 11.265625 C-10.50809731 4.7121956 -10.50809731 4.7121956 -8.15234375 1.41015625 C-5.1507863 -0.55638139 -3.52137671 -0.64678348 0 0 Z " fill="#070707" transform="translate(358,180)"/>
<path d="M0 0 C3.38234031 3.23111794 5.26898823 5.40104054 5.62890625 10.12890625 C5.63284765 11.60693134 5.61023676 13.08524075 5.5625 14.5625 C5.57345703 15.30435547 5.58441406 16.04621094 5.59570312 16.81054688 C5.54476047 20.62445344 5.20961724 22.64787981 3.21875 25.9921875 C0.86396696 28.12310032 0.0494972 28.6644344 -3.0625 28.5625 C-7 28 -7 28 -8.71679688 26.25390625 C-10.93607749 22.35580909 -10.51254181 18.38963447 -10.5 14 C-10.52835937 13.09765625 -10.55671875 12.1953125 -10.5859375 11.265625 C-10.60548296 4.65925941 -10.60548296 4.65925941 -7.625 1.4140625 C-4.61230133 -0.20884958 -3.33892748 -0.83473187 0 0 Z " fill="#070707" transform="translate(358,105)"/>
<path d="M0 0 C3.31935267 0.96840999 4.29730485 2.66040961 6.03515625 5.59375 C6.59661016 8.44626889 6.59524324 11.19455265 6.53515625 14.09375 C6.550625 14.84011719 6.56609375 15.58648437 6.58203125 16.35546875 C6.55485193 20.19454786 6.25554507 22.22175304 4.2578125 25.59375 C1.8868681 27.72718327 1.09323075 28.23805402 -2.02734375 28.09375 C-5.96484375 27.59375 -5.96484375 27.59375 -7.68603516 26.36132812 C-9.35038351 24.06085426 -9.35197047 22.63696268 -9.36328125 19.8125 C-9.36714844 18.88824219 -9.37101562 17.96398437 -9.375 17.01171875 C-9.36339844 16.04878906 -9.35179687 15.08585938 -9.33984375 14.09375 C-9.35144531 13.13082031 -9.36304688 12.16789063 -9.375 11.17578125 C-9.37113281 10.25152344 -9.36726563 9.32726562 -9.36328125 8.375 C-9.35989746 7.53001953 -9.35651367 6.68503906 -9.35302734 5.81445312 C-8.41725527 0.46113062 -4.92327843 0.22766605 0 0 Z " fill="#060606" transform="translate(356.96484375,142.40625)"/>
<path d="M0 0 C2.19140625 1.4375 2.19140625 1.4375 4 4 C4.56683475 7.17791689 4.51276247 10.28070841 4.4375 13.5 C4.44458984 14.35464844 4.45167969 15.20929688 4.45898438 16.08984375 C4.42244853 19.69284037 4.34244372 22.31197087 2.72265625 25.56640625 C0.09004059 27.75726781 -1.83279139 27.49532501 -5.12890625 27.33203125 C-7 27 -7 27 -8.9375 25.625 C-11.54504435 21.63699099 -11.25817789 17.75324377 -11.3125 13.125 C-11.34150391 12.30902344 -11.37050781 11.49304688 -11.40039062 10.65234375 C-11.46399227 4.65421904 -11.46399227 4.65421904 -9.19921875 1.4609375 C-5.97152367 -0.68321518 -3.78471038 -0.54067291 0 0 Z " fill="#030303" transform="translate(327,143)"/>
<path d="M0 0 C3.0625 1.5625 3.0625 1.5625 5 4 C5.62199068 7.87016423 5.55866253 10.0096437 3.625 13.4375 C-0.45705826 15.86729658 -4.37489197 15.74524166 -9 15 C-11.625 13.4375 -11.625 13.4375 -13 11 C-13.55326548 7.12714161 -13.56331202 4.95518126 -11.5625 1.5625 C-7.74356129 -0.76612117 -4.35571214 -0.75178662 0 0 Z " fill="#040404" transform="translate(68,188)"/>
<path d="M0 0 C2.27734375 1.28125 2.27734375 1.28125 4 3 C4.45351444 6.1746011 4.68470208 7.98852271 4 11 C1.8905299 13.63683762 0.37858099 14.7081633 -2.9375 15.41015625 C-6.95104539 15.70661131 -8.63966166 15.25523966 -12 12.875 C-14 10 -14 10 -14.5625 6.9375 C-14 4 -14 4 -12.625 1.625 C-8.65527525 -0.83244866 -4.55189962 -0.80971291 0 0 Z " fill="#050405" transform="translate(69,160)"/>
<path d="M0 0 C3 1.5625 3 1.5625 5 4 C5.62199068 7.87016423 5.55866253 10.0096437 3.625 13.4375 C-0.45705826 15.86729658 -4.37489197 15.74524166 -9 15 C-11.625 13.4375 -11.625 13.4375 -13 11 C-13.5625 7.5 -13.5625 7.5 -13 4 C-9.39843376 -0.38940886 -5.36017611 -1.04826025 0 0 Z " fill="#040404" transform="translate(68,72)"/>
<path d="M0 0 C3.7615894 1.52317881 3.7615894 1.52317881 5 4 C5.46315789 10.36842105 5.46315789 10.36842105 3.625 12.875 C-0.36666205 15.63845835 -4.27271263 15.5877622 -9 15 C-11.5625 13.4375 -11.5625 13.4375 -13 11 C-13.55326548 7.12714161 -13.56331202 4.95518126 -11.5625 1.5625 C-7.82455691 -0.71673359 -4.27732125 -0.64762258 0 0 Z " fill="#030303" transform="translate(68,43)"/>
<path d="M0 0 C1.051875 -0.00773438 2.10375 -0.01546875 3.1875 -0.0234375 C6 0.375 6 0.375 7.8515625 1.6484375 C9.22929923 3.71972877 9.40310699 4.90158511 9.375 7.375 C9.38273437 8.055625 9.39046875 8.73625 9.3984375 9.4375 C8.8638864 12.03688574 8.18604824 12.86690343 6 14.375 C3.1875 14.80859375 3.1875 14.80859375 0 14.8125 C-1.5778125 14.84150391 -1.5778125 14.84150391 -3.1875 14.87109375 C-6 14.375 -6 14.375 -7.8515625 12.5703125 C-9.52550339 9.3704663 -9.38711495 6.92355375 -9 3.375 C-6.59513233 -0.16686293 -4.08217418 -0.03001599 0 0 Z " fill="#030303" transform="translate(64,130.625)"/>
<path d="M0 0 C1.051875 -0.00773437 2.10375 -0.01546875 3.1875 -0.0234375 C6 0.375 6 0.375 7.84765625 1.68359375 C9.81605526 4.57280315 9.41386162 7.00498394 9 10.375 C7.6875 12.8125 7.6875 12.8125 5 14.375 C1.26504883 14.91735069 -2.29385456 15.14452027 -6 14.375 C-8.63595784 11.75037961 -8.97699967 10.59350314 -9.375 6.8125 C-9 3.375 -9 3.375 -7.8515625 1.68359375 C-5.21166377 -0.18215746 -3.20183544 -0.02354291 0 0 Z " fill="#030203" transform="translate(64,101.625)"/>
</svg>
